<svg width="376" height="249" viewBox="0 0 376 249" fill="none" xmlns="http://www.w3.org/2000/svg">
<mask id="mask0" mask-type="alpha" maskUnits="userSpaceOnUse" x="0" y="0" width="376" height="249">
<rect x="0.0661621" y="0.508545" width="375" height="248" fill="#A2A2A2"/>
</mask>
<g mask="url(#mask0)">
<rect x="-8.95044" y="-8.31061" width="392.992" height="265.106" fill="#A2A2A2"/>
</g>
<path opacity="0.2" d="M232.951 69.3697H142.181C136.109 69.3697 131.185 74.2635 131.185 80.2986V152.033C131.185 158.068 136.109 162.962 142.181 162.962H232.951C239.023 162.962 243.947 158.068 243.947 152.033V80.2986C243.947 74.2635 239.023 69.3697 232.951 69.3697ZM142.181 79.345H232.951C233.48 79.345 233.911 79.7734 233.911 80.2986V122.603L224.465 107.217L208.525 141.544L197.012 125.408L185.205 138.61L160.704 114.259L141.222 145.408V80.2986C141.222 79.7734 141.653 79.345 142.181 79.345ZM192.88 101.936C192.88 108.095 187.858 113.085 181.662 113.085C175.466 113.085 170.445 108.095 170.445 101.936C170.445 95.778 175.466 90.7873 181.662 90.7873C187.858 90.7873 192.88 95.778 192.88 101.936Z" fill="white"/>
<path d="M147.542 175.615C147.266 175.615 147.018 175.567 146.798 175.471C146.582 175.371 146.412 175.235 146.288 175.063C146.164 174.887 146.1 174.685 146.096 174.457H146.678C146.698 174.653 146.778 174.819 146.918 174.955C147.062 175.087 147.27 175.153 147.542 175.153C147.802 175.153 148.006 175.089 148.154 174.961C148.306 174.829 148.382 174.661 148.382 174.457C148.382 174.297 148.338 174.167 148.25 174.067C148.162 173.967 148.052 173.891 147.92 173.839C147.788 173.787 147.61 173.731 147.386 173.671C147.11 173.599 146.888 173.527 146.72 173.455C146.556 173.383 146.414 173.271 146.294 173.119C146.178 172.963 146.12 172.755 146.12 172.495C146.12 172.267 146.178 172.065 146.294 171.889C146.41 171.713 146.572 171.577 146.78 171.481C146.992 171.385 147.234 171.337 147.506 171.337C147.898 171.337 148.218 171.435 148.466 171.631C148.718 171.827 148.86 172.087 148.892 172.411H148.292C148.272 172.251 148.188 172.111 148.04 171.991C147.892 171.867 147.696 171.805 147.452 171.805C147.224 171.805 147.038 171.865 146.894 171.985C146.75 172.101 146.678 172.265 146.678 172.477C146.678 172.629 146.72 172.753 146.804 172.849C146.892 172.945 146.998 173.019 147.122 173.071C147.25 173.119 147.428 173.175 147.656 173.239C147.932 173.315 148.154 173.391 148.322 173.467C148.49 173.539 148.634 173.653 148.754 173.809C148.874 173.961 148.934 174.169 148.934 174.433C148.934 174.637 148.88 174.829 148.772 175.009C148.664 175.189 148.504 175.335 148.292 175.447C148.08 175.559 147.83 175.615 147.542 175.615ZM151.633 175.615C151.245 175.615 150.891 175.525 150.571 175.345C150.251 175.161 149.997 174.907 149.809 174.583C149.625 174.255 149.533 173.887 149.533 173.479C149.533 173.071 149.625 172.705 149.809 172.381C149.997 172.053 150.251 171.799 150.571 171.619C150.891 171.435 151.245 171.343 151.633 171.343C152.025 171.343 152.381 171.435 152.701 171.619C153.021 171.799 153.273 172.051 153.457 172.375C153.641 172.699 153.733 173.067 153.733 173.479C153.733 173.891 153.641 174.259 153.457 174.583C153.273 174.907 153.021 175.161 152.701 175.345C152.381 175.525 152.025 175.615 151.633 175.615ZM151.633 175.141C151.925 175.141 152.187 175.073 152.419 174.937C152.655 174.801 152.839 174.607 152.971 174.355C153.107 174.103 153.175 173.811 153.175 173.479C153.175 173.143 153.107 172.851 152.971 172.603C152.839 172.351 152.657 172.157 152.425 172.021C152.193 171.885 151.929 171.817 151.633 171.817C151.337 171.817 151.073 171.885 150.841 172.021C150.609 172.157 150.425 172.351 150.289 172.603C150.157 172.851 150.091 173.143 150.091 173.479C150.091 173.811 150.157 174.103 150.289 174.355C150.425 174.607 150.609 174.801 150.841 174.937C151.077 175.073 151.341 175.141 151.633 175.141ZM156.656 175.573L155.66 173.863H155V175.573H154.454V171.391H155.804C156.12 171.391 156.386 171.445 156.602 171.553C156.822 171.661 156.986 171.807 157.094 171.991C157.202 172.175 157.256 172.385 157.256 172.621C157.256 172.909 157.172 173.163 157.004 173.383C156.84 173.603 156.592 173.749 156.26 173.821L157.31 175.573H156.656ZM155 173.425H155.804C156.1 173.425 156.322 173.353 156.47 173.209C156.618 173.061 156.692 172.865 156.692 172.621C156.692 172.373 156.618 172.181 156.47 172.045C156.326 171.909 156.104 171.841 155.804 171.841H155V173.425ZM160.306 175.573L159.31 173.863H158.65V175.573H158.104V171.391H159.454C159.77 171.391 160.036 171.445 160.252 171.553C160.472 171.661 160.636 171.807 160.744 171.991C160.852 172.175 160.906 172.385 160.906 172.621C160.906 172.909 160.822 173.163 160.654 173.383C160.49 173.603 160.242 173.749 159.91 173.821L160.96 175.573H160.306ZM158.65 173.425H159.454C159.75 173.425 159.972 173.353 160.12 173.209C160.268 173.061 160.342 172.865 160.342 172.621C160.342 172.373 160.268 172.181 160.12 172.045C159.976 171.909 159.754 171.841 159.454 171.841H158.65V173.425ZM164.683 171.391L163.321 173.995V175.573H162.775V173.995L161.407 171.391H162.013L163.045 173.509L164.077 171.391H164.683ZM170.146 175.573H169.6L167.404 172.243V175.573H166.858V171.385H167.404L169.6 174.709V171.385H170.146V175.573ZM172.973 175.615C172.585 175.615 172.231 175.525 171.911 175.345C171.591 175.161 171.337 174.907 171.149 174.583C170.965 174.255 170.873 173.887 170.873 173.479C170.873 173.071 170.965 172.705 171.149 172.381C171.337 172.053 171.591 171.799 171.911 171.619C172.231 171.435 172.585 171.343 172.973 171.343C173.365 171.343 173.721 171.435 174.041 171.619C174.361 171.799 174.613 172.051 174.797 172.375C174.981 172.699 175.073 173.067 175.073 173.479C175.073 173.891 174.981 174.259 174.797 174.583C174.613 174.907 174.361 175.161 174.041 175.345C173.721 175.525 173.365 175.615 172.973 175.615ZM172.973 175.141C173.265 175.141 173.527 175.073 173.759 174.937C173.995 174.801 174.179 174.607 174.311 174.355C174.447 174.103 174.515 173.811 174.515 173.479C174.515 173.143 174.447 172.851 174.311 172.603C174.179 172.351 173.997 172.157 173.765 172.021C173.533 171.885 173.269 171.817 172.973 171.817C172.677 171.817 172.413 171.885 172.181 172.021C171.949 172.157 171.765 172.351 171.629 172.603C171.497 172.851 171.431 173.143 171.431 173.479C171.431 173.811 171.497 174.103 171.629 174.355C171.765 174.607 171.949 174.801 172.181 174.937C172.417 175.073 172.681 175.141 172.973 175.141ZM177.939 171.391V175.573H177.393V171.391H177.939ZM183.112 171.421V175.573H182.566V172.477L181.186 175.573H180.802L179.416 172.471V175.573H178.87V171.421H179.458L180.994 174.853L182.53 171.421H183.112ZM186.51 174.643H184.686L184.35 175.573H183.774L185.286 171.415H185.916L187.422 175.573H186.846L186.51 174.643ZM186.354 174.199L185.598 172.087L184.842 174.199H186.354ZM191.249 172.603C191.133 172.359 190.965 172.171 190.745 172.039C190.525 171.903 190.269 171.835 189.977 171.835C189.685 171.835 189.421 171.903 189.185 172.039C188.953 172.171 188.769 172.363 188.633 172.615C188.501 172.863 188.435 173.151 188.435 173.479C188.435 173.807 188.501 174.095 188.633 174.343C188.769 174.591 188.953 174.783 189.185 174.919C189.421 175.051 189.685 175.117 189.977 175.117C190.385 175.117 190.721 174.995 190.985 174.751C191.249 174.507 191.403 174.177 191.447 173.761H189.779V173.317H192.029V173.737C191.997 174.081 191.889 174.397 191.705 174.685C191.521 174.969 191.279 175.195 190.979 175.363C190.679 175.527 190.345 175.609 189.977 175.609C189.589 175.609 189.235 175.519 188.915 175.339C188.595 175.155 188.341 174.901 188.153 174.577C187.969 174.253 187.877 173.887 187.877 173.479C187.877 173.071 187.969 172.705 188.153 172.381C188.341 172.053 188.595 171.799 188.915 171.619C189.235 171.435 189.589 171.343 189.977 171.343C190.421 171.343 190.813 171.453 191.153 171.673C191.497 171.893 191.747 172.203 191.903 172.603H191.249ZM193.297 171.835V173.233H194.821V173.683H193.297V175.123H195.001V175.573H192.751V171.385H195.001V171.835H193.297ZM200.001 171.391V171.835H198.861V175.573H198.315V171.835H197.169V171.391H200.001ZM202.569 175.615C202.181 175.615 201.827 175.525 201.507 175.345C201.187 175.161 200.933 174.907 200.745 174.583C200.561 174.255 200.469 173.887 200.469 173.479C200.469 173.071 200.561 172.705 200.745 172.381C200.933 172.053 201.187 171.799 201.507 171.619C201.827 171.435 202.181 171.343 202.569 171.343C202.961 171.343 203.317 171.435 203.637 171.619C203.957 171.799 204.209 172.051 204.393 172.375C204.577 172.699 204.669 173.067 204.669 173.479C204.669 173.891 204.577 174.259 204.393 174.583C204.209 174.907 203.957 175.161 203.637 175.345C203.317 175.525 202.961 175.615 202.569 175.615ZM202.569 175.141C202.861 175.141 203.123 175.073 203.355 174.937C203.591 174.801 203.775 174.607 203.907 174.355C204.043 174.103 204.111 173.811 204.111 173.479C204.111 173.143 204.043 172.851 203.907 172.603C203.775 172.351 203.593 172.157 203.361 172.021C203.129 171.885 202.865 171.817 202.569 171.817C202.273 171.817 202.009 171.885 201.777 172.021C201.545 172.157 201.361 172.351 201.225 172.603C201.093 172.851 201.027 173.143 201.027 173.479C201.027 173.811 201.093 174.103 201.225 174.355C201.361 174.607 201.545 174.801 201.777 174.937C202.013 175.073 202.277 175.141 202.569 175.141ZM208.291 171.391C208.747 171.391 209.141 171.477 209.473 171.649C209.809 171.817 210.065 172.059 210.241 172.375C210.421 172.691 210.511 173.063 210.511 173.491C210.511 173.919 210.421 174.291 210.241 174.607C210.065 174.919 209.809 175.159 209.473 175.327C209.141 175.491 208.747 175.573 208.291 175.573H206.989V171.391H208.291ZM208.291 175.123C208.831 175.123 209.243 174.981 209.527 174.697C209.811 174.409 209.953 174.007 209.953 173.491C209.953 172.971 209.809 172.565 209.521 172.273C209.237 171.981 208.827 171.835 208.291 171.835H207.535V175.123H208.291ZM211.777 171.391V175.573H211.231V171.391H211.777ZM214.034 175.615C213.758 175.615 213.51 175.567 213.29 175.471C213.074 175.371 212.904 175.235 212.78 175.063C212.656 174.887 212.592 174.685 212.588 174.457H213.17C213.19 174.653 213.27 174.819 213.41 174.955C213.554 175.087 213.762 175.153 214.034 175.153C214.294 175.153 214.498 175.089 214.646 174.961C214.798 174.829 214.874 174.661 214.874 174.457C214.874 174.297 214.83 174.167 214.742 174.067C214.654 173.967 214.544 173.891 214.412 173.839C214.28 173.787 214.102 173.731 213.878 173.671C213.602 173.599 213.38 173.527 213.212 173.455C213.048 173.383 212.906 173.271 212.786 173.119C212.67 172.963 212.612 172.755 212.612 172.495C212.612 172.267 212.67 172.065 212.786 171.889C212.902 171.713 213.064 171.577 213.272 171.481C213.484 171.385 213.726 171.337 213.998 171.337C214.39 171.337 214.71 171.435 214.958 171.631C215.21 171.827 215.352 172.087 215.384 172.411H214.784C214.764 172.251 214.68 172.111 214.532 171.991C214.384 171.867 214.188 171.805 213.944 171.805C213.716 171.805 213.53 171.865 213.386 171.985C213.242 172.101 213.17 172.265 213.17 172.477C213.17 172.629 213.212 172.753 213.296 172.849C213.384 172.945 213.49 173.019 213.614 173.071C213.742 173.119 213.92 173.175 214.148 173.239C214.424 173.315 214.646 173.391 214.814 173.467C214.982 173.539 215.126 173.653 215.246 173.809C215.366 173.961 215.426 174.169 215.426 174.433C215.426 174.637 215.372 174.829 215.264 175.009C215.156 175.189 214.996 175.335 214.784 175.447C214.572 175.559 214.322 175.615 214.034 175.615ZM219.025 172.615C219.025 172.963 218.905 173.253 218.665 173.485C218.429 173.713 218.067 173.827 217.579 173.827H216.775V175.573H216.229V171.391H217.579C218.051 171.391 218.409 171.505 218.653 171.733C218.901 171.961 219.025 172.255 219.025 172.615ZM217.579 173.377C217.883 173.377 218.107 173.311 218.251 173.179C218.395 173.047 218.467 172.859 218.467 172.615C218.467 172.099 218.171 171.841 217.579 171.841H216.775V173.377H217.579ZM220.25 175.129H221.714V175.573H219.704V171.391H220.25V175.129ZM224.766 174.643H222.942L222.606 175.573H222.03L223.542 171.415H224.172L225.678 175.573H225.102L224.766 174.643ZM224.61 174.199L223.854 172.087L223.098 174.199H224.61ZM229.265 171.391L227.903 173.995V175.573H227.357V173.995L225.989 171.391H226.595L227.627 173.509L228.659 171.391H229.265Z" fill="white"/>
</svg>
